<svg width="112" height="99" viewBox="0 0 112 99" fill="none" xmlns="http://www.w3.org/2000/svg">
<g id="Generic avatar">
<rect width="111.565" height="98.5624" rx="49.2812" transform="matrix(0.999992 0.00393029 -0.00425365 0.999991 0.418945 0)" fill="#EADDFF"/>
<g id="Avatar Placeholder">
<path fill-rule="evenodd" clip-rule="evenodd" d="M72.7687 39.7096C72.734 47.8747 65.2135 54.4643 55.9712 54.428C46.729 54.3917 39.2648 47.7431 39.2996 39.578C39.3343 31.4129 46.8548 24.8232 56.097 24.8596C65.3393 24.8959 72.8034 31.5445 72.7687 39.7096ZM67.1905 39.6876C67.1674 45.131 62.1537 49.5241 55.9922 49.4999C49.8307 49.4757 44.8546 45.0433 44.8777 39.5999C44.9009 34.1565 49.9146 29.7634 56.0761 29.7876C62.2376 29.8118 67.2137 34.2442 67.1905 39.6876Z" fill="#4F378A"/>
<path d="M55.9398 61.8201C37.8821 61.7491 22.4564 71.122 16.5394 84.3152C17.9618 85.5733 19.4608 86.7639 21.0296 87.8811C25.4454 75.7645 39.1751 66.6824 55.9188 66.7482C72.6626 66.814 86.3145 76.0037 90.6271 88.1547C92.2054 87.0499 93.7145 85.8711 95.1475 84.6242C89.343 71.3849 73.9975 61.8911 55.9398 61.8201Z" fill="#4F378A"/>
</g>
</g>
</svg>
