<svg width="29" height="28" viewBox="0 0 29 28" fill="none" xmlns="http://www.w3.org/2000/svg">
<g id="Google__G__logo 1">
<path id="Vector" d="M26.82 14.2959C26.82 13.3859 26.7383 12.5109 26.5867 11.6709H14.5V16.6409H21.4067C21.1033 18.2392 20.1933 19.5926 18.8283 20.5026V23.7342H22.9933C25.42 21.4942 26.82 18.2042 26.82 14.2959Z" fill="#4285F4"/>
<path id="Vector_2" d="M14.5 26.8374C17.965 26.8374 20.87 25.6941 22.9933 23.7341L18.8283 20.5024C17.685 21.2724 16.2267 21.7391 14.5 21.7391C11.1633 21.7391 8.32833 19.4874 7.31333 16.4541H3.04333V19.7674C5.155 23.9558 9.48333 26.8374 14.5 26.8374Z" fill="#34A853"/>
<path id="Vector_3" d="M7.31335 16.4424C7.05669 15.6724 6.90502 14.8558 6.90502 14.0041C6.90502 13.1524 7.05669 12.3358 7.31335 11.5658V8.25244H3.04335C2.16835 9.97911 1.66669 11.9274 1.66669 14.0041C1.66669 16.0808 2.16835 18.0291 3.04335 19.7558L6.36835 17.1658L7.31335 16.4424Z" fill="#FBBC05"/>
<path id="Vector_4" d="M14.5 6.2809C16.39 6.2809 18.07 6.93423 19.4117 8.19423L23.0867 4.51923C20.8583 2.44257 17.965 1.1709 14.5 1.1709C9.48334 1.1709 5.155 4.05257 3.04333 8.25257L7.31334 11.5659C8.32834 8.53257 11.1633 6.2809 14.5 6.2809Z" fill="#EA4335"/>
</g>
</svg>
